mtllib campfire.mtl
o Circle
v 0.000000 0.052780 -0.596828
v -0.116435 0.052780 -0.585360
v -0.228396 0.052780 -0.551397
v -0.331580 0.052780 -0.496244
v -0.422021 0.052780 -0.422021
v -0.496244 0.052780 -0.331580
v -0.551397 0.052780 -0.228396
v -0.585360 0.052780 -0.116435
v -0.596828 0.052780 0.000000
v -0.585360 0.052780 0.116435
v -0.551397 0.052780 0.228396
v -0.496244 0.052780 0.331580
v -0.422021 0.052780 0.422021
v -0.331580 0.052780 0.496244
v -0.228396 0.052780 0.551397
v -0.116435 0.052780 0.585360
v 0.000000 0.052780 0.596828
v 0.116435 0.052780 0.585360
v 0.228396 0.052780 0.551397
v 0.331580 0.052780 0.496244
v 0.422021 0.052780 0.422021
v 0.496244 0.052780 0.331580
v 0.551397 0.052780 0.228396
v 0.585360 0.052780 0.116435
v 0.596828 0.052780 0.000000
v 0.585360 0.052780 -0.116435
v 0.551397 0.052780 -0.228396
v 0.496244 0.052780 -0.331580
v 0.422021 0.052780 -0.422021
v 0.331580 0.052780 -0.496244
v 0.228396 0.052780 -0.551397
v 0.116435 0.052780 -0.585360
v -0.116435 0.042747 -0.585360
v 0.000000 0.042747 -0.596828
v -0.228396 0.042747 -0.551397
v -0.331580 0.042747 -0.496244
v -0.422021 0.042747 -0.422021
v -0.496244 0.042747 -0.331580
v -0.551397 0.042747 -0.228396
v -0.585360 0.042747 -0.116435
v -0.596828 0.042747 0.000000
v -0.585360 0.042747 0.116435
v -0.551397 0.042747 0.228396
v -0.496244 0.042747 0.331580
v -0.422021 0.042747 0.422021
v -0.331580 0.042747 0.496244
v -0.228396 0.042747 0.551397
v -0.116435 0.042747 0.585360
v 0.000000 0.042747 0.596828
v 0.116435 0.042747 0.585360
v 0.228396 0.042747 0.551397
v 0.331580 0.042747 0.496244
v 0.422021 0.042747 0.422021
v 0.496244 0.042747 0.331580
v 0.551397 0.042747 0.228396
v 0.585360 0.042747 0.116435
v 0.596828 0.042747 0.000000
v 0.585360 0.042747 -0.116435
v 0.551397 0.042747 -0.228396
v 0.496244 0.042747 -0.331580
v 0.422021 0.042747 -0.422021
v 0.331580 0.042747 -0.496244
v 0.228396 0.042747 -0.551397
v 0.116435 0.042747 -0.585360
v -0.116435 -0.038025 -0.585360
v 0.000000 -0.038025 -0.596828
v -0.228396 -0.038025 -0.551397
v -0.331580 -0.038025 -0.496244
v -0.422021 -0.038025 -0.422021
v -0.496244 -0.038025 -0.331580
v -0.551397 -0.038025 -0.228396
v -0.585360 -0.038025 -0.116435
v -0.596828 -0.038025 0.000000
v -0.585360 -0.038025 0.116435
v -0.551397 -0.038025 0.228396
v -0.496244 -0.038025 0.331580
v -0.422021 -0.038025 0.422021
v -0.331580 -0.038025 0.496244
v -0.228396 -0.038025 0.551397
v -0.116435 -0.038025 0.585360
v 0.000000 -0.038025 0.596828
v 0.116435 -0.038025 0.585360
v 0.228396 -0.038025 0.551397
v 0.331580 -0.038025 0.496244
v 0.422021 -0.038025 0.422021
v 0.496244 -0.038025 0.331580
v 0.551397 -0.038025 0.228396
v 0.585360 -0.038025 0.116435
v 0.596828 -0.038025 0.000000
v 0.585360 -0.038025 -0.116435
v 0.551397 -0.038025 -0.228396
v 0.496244 -0.038025 -0.331580
v 0.422021 -0.038025 -0.422021
v 0.331580 -0.038025 -0.496244
v 0.228396 -0.038025 -0.551397
v 0.116435 -0.038025 -0.585360
vn 0.0980 -0.0000 0.9952
vn -0.0000 1.0000 -0.0000
vn -0.2903 -0.0000 0.9569
vn -0.2903 -0.0000 -0.9569
vn 0.7730 -0.0000 0.6344
vn -0.0980 -0.0000 0.9952
vn -0.4714 -0.0000 -0.8819
vn 0.8819 -0.0000 0.4714
vn -0.6344 -0.0000 -0.7730
vn 0.9569 -0.0000 0.2903
vn -0.7730 -0.0000 -0.6344
vn 0.9952 -0.0000 0.0980
vn -0.8819 -0.0000 -0.4714
vn 0.9952 -0.0000 -0.0980
vn -0.9569 -0.0000 -0.2903
vn 0.9569 -0.0000 -0.2903
vn -0.9952 -0.0000 -0.0980
vn 0.8819 -0.0000 -0.4714
vn -0.9952 -0.0000 0.0980
vn 0.7730 -0.0000 -0.6344
vn -0.9569 -0.0000 0.2903
vn 0.6344 -0.0000 -0.7730
vn -0.8819 -0.0000 0.4714
vn 0.4714 -0.0000 -0.8819
vn -0.7730 -0.0000 0.6344
vn 0.2903 -0.0000 -0.9569
vn 0.2903 -0.0000 0.9569
vn -0.6344 -0.0000 0.7730
vn 0.0980 -0.0000 -0.9952
vn 0.4714 -0.0000 0.8819
vn -0.4714 -0.0000 0.8819
vn -0.0980 -0.0000 -0.9952
vn 0.6344 -0.0000 0.7730
vn -0.0000 -1.0000 -0.0000
usemtl Material.003
s 0
f 18/577/1 17/576/1 81/640/1 82/641/1
f 33/592/2 35/594/2 36/595/2 37/596/2 38/597/2 39/598/2 40/599/2 41/600/2 42/601/2 43/602/2 44/603/2 45/604/2 46/605/2 47/606/2 48/607/2 49/608/2 50/609/2 51/610/2 52/611/2 53/612/2 54/613/2 55/614/2 56/615/2 57/616/2 58/617/2 59/618/2 60/619/2 61/620/2 62/621/2 63/622/2 64/623/2 34/593/2
f 31/590/3 32/591/3 64/623/3 63/622/3
f 18/577/4 19/578/4 51/610/4 50/609/4
f 5/564/5 6/565/5 38/597/5 37/596/5
f 32/591/6 1/560/6 34/593/6 64/623/6
f 19/578/7 20/579/7 52/611/7 51/610/7
f 6/565/8 7/566/8 39/598/8 38/597/8
f 20/579/9 21/580/9 53/612/9 52/611/9
f 7/566/10 8/567/10 40/599/10 39/598/10
f 21/580/11 22/581/11 54/613/11 53/612/11
f 8/567/12 9/568/12 41/600/12 40/599/12
f 22/581/13 23/582/13 55/614/13 54/613/13
f 9/568/14 10/569/14 42/601/14 41/600/14
f 23/582/15 24/583/15 56/615/15 55/614/15
f 10/569/16 11/570/16 43/602/16 42/601/16
f 24/583/17 25/584/17 57/616/17 56/615/17
f 11/570/18 12/571/18 44/603/18 43/602/18
f 25/584/19 26/585/19 58/617/19 57/616/19
f 12/571/20 13/572/20 45/604/20 44/603/20
f 26/585/21 27/586/21 59/618/21 58/617/21
f 13/572/22 14/573/22 46/605/22 45/604/22
f 27/586/23 28/587/23 60/619/23 59/618/23
f 14/573/24 15/574/24 47/606/24 46/605/24
f 1/560/1 2/561/1 33/592/1 34/593/1
f 28/587/25 29/588/25 61/620/25 60/619/25
f 15/574/26 16/575/26 48/607/26 47/606/26
f 2/561/27 3/562/27 35/594/27 33/592/27
f 29/588/28 30/589/28 62/621/28 61/620/28
f 16/575/29 17/576/29 49/608/29 48/607/29
f 3/562/30 4/563/30 36/595/30 35/594/30
f 30/589/31 31/590/31 63/622/31 62/621/31
f 17/576/32 18/577/32 50/609/32 49/608/32
f 4/563/33 5/564/33 37/596/33 36/595/33
f 65/624/34 66/625/34 96/655/34 95/654/34 94/653/34 93/652/34 92/651/34 91/650/34 90/649/34 89/648/34 88/647/34 87/646/34 86/645/34 85/644/34 84/643/34 83/642/34 82/641/34 81/640/34 80/639/34 79/638/34 78/637/34 77/636/34 76/635/34 75/634/34 74/633/34 73/632/34 72/631/34 71/630/34 70/629/34 69/628/34 68/627/34 67/626/34
f 5/564/9 4/563/9 68/627/9 69/628/9
f 32/591/26 31/590/26 95/654/26 96/655/26
f 19/578/27 18/577/27 82/641/27 83/642/27
f 6/565/11 5/564/11 69/628/11 70/629/11
f 1/560/29 32/591/29 96/655/29 66/625/29
f 20/579/30 19/578/30 83/642/30 84/643/30
f 7/566/13 6/565/13 70/629/13 71/630/13
f 21/580/33 20/579/33 84/643/33 85/644/33
f 8/567/15 7/566/15 71/630/15 72/631/15
f 22/581/5 21/580/5 85/644/5 86/645/5
f 9/568/17 8/567/17 72/631/17 73/632/17
f 23/582/8 22/581/8 86/645/8 87/646/8
f 10/569/19 9/568/19 73/632/19 74/633/19
f 24/583/10 23/582/10 87/646/10 88/647/10
f 11/570/21 10/569/21 74/633/21 75/634/21
f 25/584/12 24/583/12 88/647/12 89/648/12
f 12/571/23 11/570/23 75/634/23 76/635/23
f 26/585/14 25/584/14 89/648/14 90/649/14
f 13/572/25 12/571/25 76/635/25 77/636/25
f 27/586/16 26/585/16 90/649/16 91/650/16
f 14/573/28 13/572/28 77/636/28 78/637/28
f 28/587/18 27/586/18 91/650/18 92/651/18
f 15/574/31 14/573/31 78/637/31 79/638/31
f 2/561/32 1/560/32 66/625/32 65/624/32
f 29/588/20 28/587/20 92/651/20 93/652/20
f 16/575/3 15/574/3 79/638/3 80/639/3
f 3/562/4 2/561/4 65/624/4 67/626/4
f 30/589/22 29/588/22 93/652/22 94/653/22
f 17/576/6 16/575/6 80/639/6 81/640/6
f 4/563/7 3/562/7 67/626/7 68/627/7
f 31/590/24 30/589/24 94/653/24 95/654/24
